<svg xmlns="http://www.w3.org/2000/svg" width="176.267" height="188.915" viewBox="0 0 176.267 188.915">
  <path id="logo" d="M160.255,30.163c4.979-4.01,11.652-16.254,16.012-29.763q-44.08,18.811-88.133,18.838Q44.053,19.2,0,.4C4.36,13.909,11.033,26.154,16.012,30.163q12.312,2.785,24.946,4.548l-1.8,21.421H16.55V70.664H37.918L28.041,187.727l18.784,1.588L56.836,70.664h62.649L129.5,189.315l18.784-1.588L138.4,70.664h22.713V56.133H137.192l-1.8-21.421C143.758,33.527,152.074,32.02,160.255,30.163ZM118.22,56.133H58.047l1.642-19.349c9.338.78,18.811,1.184,28.418,1.265h.108q14.37-.081,28.418-1.265Z" transform="translate(0 -0.4)" fill="#bc002d"/>
</svg>
